<svg version="1.1" xmlns="http://www.w3.org/2000/svg" xmlns:xlink="http://www.w3.org/1999/xlink" width="450" height="300">
  <defs>
    <clipPath id="tSFfwHcJgTEC">
      <path fill="none" stroke="none" d=" M 0 0 L 450 0 L 450 300 L 0 300 L 0 0 Z" />
    </clipPath>
  </defs>
  <g transform="scale(1,1)" clip-path="url(#tSFfwHcJgTEC)">
    <g>
      <path fill="none" stroke="rgb(110,109,115)" paint-order="fill stroke markers" d=" M 347.8084083796059 143.20599034246732 C 347.8084083796059 201.85907592284298 300.26068794760204 249.40679635484685 241.60760236722643 249.40679635484685 C 182.95451678685083 249.40679635484685 135.40679635484696 201.85907592284298 135.40679635484696 143.20599034246732 C 135.40679635484696 84.55290476209166 182.95451678685083 37.00518433008777 241.60760236722643 37.00518433008777 C 300.26068794760204 37.00518433008777 347.8084083796059 84.55290476209166 347.8084083796059 143.20599034246732 Z" stroke-opacity="0.8" stroke-linejoin="round" stroke-miterlimit="10" stroke-width="2.5" stroke-dasharray="10.5,8" />
      <path fill="rgb(21,101,192)" stroke="none" paint-order="stroke fill markers" d=" M 319.7187266326289 71.25278705259343 C 290.6445156015784 39.690338031167784 245.43248504567578 28.726824528406127 205.130503320305 43.466166586857284 L 241.60760236722643 143.20599034246732 Z" fill-opacity="0.09803921568627451" />
      <path fill="none" stroke="rgb(21,101,192)" paint-order="fill stroke markers" d=" M 319.7187266326289 71.25278705259343 C 290.6445156015784 39.690338031167784 245.43248504567578 28.726824528406127 205.130503320305 43.466166586857284 L 241.60760236722643 143.20599034246732 Z" stroke-opacity="0.8" stroke-linecap="round" stroke-linejoin="round" stroke-miterlimit="10" stroke-width="2.5" />
      <path fill="rgb(21,101,192)" stroke="none" paint-order="stroke fill markers" d=" M 174.75418745615698 225.72406177174554 C 206.16971792104488 251.17588652289106 249.31208303176538 256.5813982267265 286.0358696545696 239.66707194289032 L 241.60760236722643 143.20599034246732 Z" fill-opacity="0.09803921568627451" />
      <path fill="none" stroke="rgb(21,101,192)" paint-order="fill stroke markers" d=" M 174.75418745615698 225.72406177174554 C 206.16971792104488 251.17588652289106 249.31208303176538 256.5813982267265 286.0358696545696 239.66707194289032 L 241.60760236722643 143.20599034246732 Z" stroke-opacity="0.8" stroke-linecap="round" stroke-linejoin="round" stroke-miterlimit="10" stroke-width="2.5" />
      <path fill="rgb(0,0,0)" stroke="none" paint-order="stroke fill markers" fill-rule="evenodd" d=" M 205.13050332030502 43.466166586857256 L 185.20785629527666 50.7523271338167 L 192.49401684223525 70.6749741588469 L 212.41666386726445 63.38881361188563 L 205.13050332030502 43.466166586857256" fill-opacity="0.09803921568627451" />
      <path fill="none" stroke="rgb(0,0,0)" paint-order="fill stroke markers" d=" M 205.13050332030502 43.466166586857256 L 185.20785629527666 50.7523271338167 L 192.49401684223525 70.6749741588469 L 212.41666386726445 63.38881361188563 L 205.13050332030502 43.466166586857256" stroke-opacity="0.6" stroke-linecap="round" stroke-linejoin="round" stroke-miterlimit="10" stroke-width="2" />
      <path fill="rgb(0,0,0)" stroke="none" paint-order="stroke fill markers" fill-rule="evenodd" d=" M 319.7187266326289 71.25278705259342 L 304.11632932660586 85.62516327592355 L 318.4887055499359 101.2275605819486 L 334.091102855959 86.85518435861646 L 319.7187266326289 71.25278705259342" fill-opacity="0.09803921568627451" />
      <path fill="none" stroke="rgb(0,0,0)" paint-order="fill stroke markers" d=" M 319.7187266326289 71.25278705259342 L 304.11632932660586 85.62516327592355 L 318.4887055499359 101.2275605819486 L 334.091102855959 86.85518435861646 L 319.7187266326289 71.25278705259342" stroke-opacity="0.6" stroke-linecap="round" stroke-linejoin="round" stroke-miterlimit="10" stroke-width="2" />
      <path fill="rgb(0,0,0)" stroke="none" paint-order="stroke fill markers" fill-rule="evenodd" d=" M 286.0358696545695 239.6670719428903 L 305.3036005168831 230.792696053996 L 296.4292246279895 211.5249651916805 L 277.16149376567523 220.39934108057668 L 286.0358696545695 239.6670719428903" fill-opacity="0.09803921568627451" />
      <path fill="none" stroke="rgb(0,0,0)" paint-order="fill stroke markers" d=" M 286.0358696545695 239.6670719428903 L 305.3036005168831 230.792696053996 L 296.4292246279895 211.5249651916805 L 277.16149376567523 220.39934108057668 L 286.0358696545695 239.6670719428903" stroke-opacity="0.6" stroke-linecap="round" stroke-linejoin="round" stroke-miterlimit="10" stroke-width="2" />
      <path fill="rgb(0,0,0)" stroke="none" paint-order="stroke fill markers" fill-rule="evenodd" d=" M 174.75418745615698 225.72406177174554 L 188.1079005222089 209.24139368221907 L 171.62523243268222 195.88768061616514 L 158.2715193666305 212.37034870569363 L 174.75418745615698 225.72406177174554" fill-opacity="0.09803921568627451" />
      <path fill="none" stroke="rgb(0,0,0)" paint-order="fill stroke markers" d=" M 174.75418745615698 225.72406177174554 L 188.1079005222089 209.24139368221907 L 171.62523243268222 195.88768061616514 L 158.2715193666305 212.37034870569363 L 174.75418745615698 225.72406177174554" stroke-opacity="0.6" stroke-linecap="round" stroke-linejoin="round" stroke-miterlimit="10" stroke-width="2" />
      <path fill="rgb(0,0,0)" stroke="none" paint-order="stroke fill markers" d=" M 263.6727242429391 122.8803809639039 C 255.45973261244396 113.96450258034062 242.68806949984037 110.86748837270353 231.30341530408796 115.0311127212983 L 241.60760236722643 143.20599034246732 Z" fill-opacity="0.09803921568627451" />
      <path fill="none" stroke="rgb(0,0,0)" paint-order="fill stroke markers" d=" M 263.6727242429391 122.8803809639039 C 255.45973261244396 113.96450258034062 242.68806949984037 110.86748837270353 231.30341530408796 115.0311127212983 L 241.60760236722643 143.20599034246732 Z" stroke-opacity="0.6" stroke-linecap="round" stroke-linejoin="round" stroke-miterlimit="10" stroke-width="2" />
      <g transform="scale(19,19)">
        <g transform="translate(12.736842105263158,5.852052631578948)">
          <path fill="rgb(0,0,0)" stroke="none" paint-order="stroke fill markers" d=" M 0.47700000000000004 -0.23600000000000002 L 0.47700000000000004 -0.23600000000000002 L 0.47700000000000004 -0.17400000000000002 Q 0.542 -0.255 0.5750000000000001 -0.372 Q 0.585 -0.392 0.59 -0.393 Q 0.602 -0.393 0.602 -0.383 Q 0.602 -0.366 0.579 -0.307 Q 0.545 -0.221 0.487 -0.148 Q 0.47700000000000004 -0.128 0.47700000000000004 -0.113 Q 0.47700000000000004 -0.011 0.508 -0.011 Q 0.539 -0.011 0.558 -0.046 Q 0.561 -0.052000000000000005 0.5640000000000001 -0.06 Q 0.5680000000000001 -0.07 0.577 -0.07 Q 0.589 -0.07 0.589 -0.06 Q 0.589 -0.041 0.5640000000000001 -0.015 Q 0.538 0.011 0.505 0.011 Q 0.442 0.011 0.418 -0.058 Q 0.41600000000000004 -0.065 0.41400000000000003 -0.073 Q 0.309 0.011 0.203 0.011 Q 0.109 0.011 0.065 -0.064 Q 0.041 -0.105 0.041 -0.158 Q 0.041 -0.26 0.11900000000000001 -0.34700000000000003 Q 0.196 -0.433 0.293 -0.441 Q 0.302 -0.442 0.31 -0.442 Q 0.394 -0.442 0.44 -0.376 Q 0.44 -0.375 0.441 -0.375 Q 0.47700000000000004 -0.322 0.47700000000000004 -0.23600000000000002 M 0.41000000000000003 -0.099 L 0.41000000000000003 -0.099 Q 0.40800000000000003 -0.116 0.40800000000000003 -0.211 Q 0.40800000000000003 -0.334 0.381 -0.379 Q 0.369 -0.399 0.352 -0.40900000000000003 L 0.35100000000000003 -0.41000000000000003 L 0.35100000000000003 -0.41000000000000003 L 0.35000000000000003 -0.41000000000000003 Q 0.332 -0.42 0.309 -0.42 Q 0.23800000000000002 -0.42 0.181 -0.34 L 0.17300000000000001 -0.328 Q 0.137 -0.27 0.12 -0.166 Q 0.115 -0.138 0.115 -0.12 Q 0.115 -0.036000000000000004 0.17400000000000002 -0.016 Q 0.188 -0.011 0.20500000000000002 -0.011 Q 0.309 -0.011 0.41000000000000003 -0.099 Z" />
        </g>
      </g>
      <path fill="rgb(0,0,0)" stroke="none" paint-order="stroke fill markers" d=" M 222.7226002411757 166.51600309877142 C 231.59697652262105 173.7057295349847 243.7839928167417 175.23269865324323 254.15786510689833 170.45467664410768 L 241.60760236722643 143.20599034246732 Z" fill-opacity="0.09803921568627451" />
      <path fill="none" stroke="rgb(0,0,0)" paint-order="fill stroke markers" d=" M 222.7226002411757 166.51600309877142 C 231.59697652262105 173.7057295349847 243.7839928167417 175.23269865324323 254.15786510689833 170.45467664410768 L 241.60760236722643 143.20599034246732 Z" stroke-opacity="0.6" stroke-linecap="round" stroke-linejoin="round" stroke-miterlimit="10" stroke-width="2" />
      <g transform="scale(19,19)">
        <g transform="translate(12.052631578947368,10.062421052631578)">
          <path fill="rgb(0,0,0)" stroke="none" paint-order="stroke fill markers" d=" M 0.028 0.169 L 0.18 -0.437 Q 0.209 -0.551 0.292 -0.631 Q 0.37 -0.705 0.456 -0.705 Q 0.539 -0.705 0.5750000000000001 -0.639 Q 0.59 -0.611 0.59 -0.577 Q 0.59 -0.502 0.528 -0.439 Q 0.507 -0.418 0.482 -0.403 Q 0.549 -0.357 0.549 -0.264 Q 0.549 -0.161 0.46900000000000003 -0.076 Q 0.392 0.005 0.296 0.012 L 0.28300000000000003 0.012 Q 0.186 0.012 0.14100000000000001 -0.063 Q 0.129 -0.083 0.123 -0.105 L 0.048 0.188 L 0.047 0.19 Q 0.043000000000000003 0.194 0.037 0.194 Q 0.025 0.194 0.025 0.184 Q 0.025 0.181 0.028 0.169 M 0.328 -0.401 Q 0.34500000000000003 -0.395 0.371 -0.395 Q 0.401 -0.395 0.419 -0.403 Q 0.406 -0.40900000000000003 0.379 -0.40900000000000003 Q 0.34400000000000003 -0.40900000000000003 0.328 -0.401 M 0.45 -0.421 Q 0.511 -0.467 0.525 -0.577 L 0.525 -0.578 L 0.525 -0.58 Q 0.527 -0.594 0.527 -0.602 Q 0.527 -0.673 0.46900000000000003 -0.682 Q 0.462 -0.683 0.455 -0.683 Q 0.372 -0.683 0.299 -0.606 Q 0.23 -0.534 0.2 -0.41600000000000004 L 0.154 -0.231 Q 0.14100000000000001 -0.179 0.14100000000000001 -0.156 Q 0.14100000000000001 -0.074 0.2 -0.034 Q 0.234 -0.01 0.281 -0.01 Q 0.359 -0.01 0.41500000000000004 -0.094 Q 0.422 -0.10300000000000001 0.427 -0.113 Q 0.462 -0.179 0.47400000000000003 -0.274 Q 0.47600000000000003 -0.291 0.47600000000000003 -0.302 Q 0.47600000000000003 -0.355 0.446 -0.386 Q 0.41400000000000003 -0.373 0.371 -0.373 Q 0.303 -0.373 0.303 -0.399 Q 0.303 -0.431 0.381 -0.431 Q 0.422 -0.431 0.45 -0.421 Z" />
        </g>
      </g>
      <path fill="none" stroke="rgb(110,109,115)" paint-order="fill stroke markers" d=" M -5 80.09315853004884 L 1647.6307673068907 1419" stroke-opacity="0.8" stroke-linejoin="round" stroke-miterlimit="10" stroke-width="2.5" stroke-dasharray="10.5,8" />
      <path fill="none" stroke="rgb(110,109,115)" paint-order="fill stroke markers" d=" M -5 120.31562243886935 L 337.65219610253723 -5" stroke-opacity="0.8" stroke-linejoin="round" stroke-miterlimit="10" stroke-width="2.5" stroke-dasharray="10.5,8" />
      <path fill="none" stroke="rgb(110,109,115)" paint-order="fill stroke markers" d=" M 1561.2157618957394 1419 L 249.4773578159098 -5" stroke-opacity="0.8" stroke-linejoin="round" stroke-miterlimit="10" stroke-width="2.5" stroke-dasharray="10.5,8" />
      <path fill="none" stroke="rgb(110,109,115)" paint-order="fill stroke markers" d=" M -5 373.7130435688281 L 817.24835739305 -5" stroke-opacity="0.8" stroke-linejoin="round" stroke-miterlimit="10" stroke-width="2.5" stroke-dasharray="10.5,8" />
      <path fill="none" stroke="rgb(110,109,115)" paint-order="fill stroke markers" d=" M 29.20599034246746 107.80572167167412 L 205.13050332030502 43.466166586857256" stroke-opacity="0.8" stroke-linecap="round" stroke-linejoin="round" stroke-miterlimit="10" stroke-width="2.5" />
      <path fill="none" stroke="rgb(110,109,115)" paint-order="fill stroke markers" d=" M 29.20599034246746 107.80572167167412 L 174.75418745615698 225.72406177174554" stroke-opacity="0.8" stroke-linecap="round" stroke-linejoin="round" stroke-miterlimit="10" stroke-width="2.5" />
      <path fill="none" stroke="rgb(110,109,115)" paint-order="fill stroke markers" d=" M 418.6089457211922 178.60625901326048 L 286.0358696545695 239.6670719428903" stroke-opacity="0.8" stroke-linecap="round" stroke-linejoin="round" stroke-miterlimit="10" stroke-width="2.5" />
      <path fill="none" stroke="rgb(110,109,115)" paint-order="fill stroke markers" d=" M 418.6089457211922 178.60625901326048 L 319.7187266326289 71.25278705259342" stroke-opacity="0.8" stroke-linecap="round" stroke-linejoin="round" stroke-miterlimit="10" stroke-width="2.5" />
      <path fill="rgb(21,101,192)" stroke="none" paint-order="stroke fill markers" d=" M 246.60760236722643 143.20599034246732 C 246.60760236722643 145.9674140916213 244.3690261163804 148.20599034246732 241.60760236722643 148.20599034246732 C 238.84617861807246 148.20599034246732 236.60760236722643 145.9674140916213 236.60760236722643 143.20599034246732 C 236.60760236722643 140.44456659331334 238.84617861807246 138.20599034246732 241.60760236722643 138.20599034246732 C 244.3690261163804 138.20599034246732 246.60760236722643 140.44456659331334 246.60760236722643 143.20599034246732 Z" fill-opacity="1" />
      <path fill="none" stroke="rgb(0,0,0)" paint-order="fill stroke markers" d=" M 246.60760236722643 143.20599034246732 C 246.60760236722643 145.9674140916213 244.3690261163804 148.20599034246732 241.60760236722643 148.20599034246732 C 238.84617861807246 148.20599034246732 236.60760236722643 145.9674140916213 236.60760236722643 143.20599034246732 C 236.60760236722643 140.44456659331334 238.84617861807246 138.20599034246732 241.60760236722643 138.20599034246732 C 244.3690261163804 138.20599034246732 246.60760236722643 140.44456659331334 246.60760236722643 143.20599034246732 Z" stroke-opacity="1" stroke-linecap="round" stroke-linejoin="round" stroke-miterlimit="10" />
      <g transform="scale(19,19)">
        <g transform="translate(13.526315789473685,7.865052631578948)">
          <path fill="rgb(21,101,192)" stroke="none" paint-order="stroke fill markers" d=" M 0.36 -0.40700000000000003 Q 0.334 -0.41300000000000003 0.295 -0.41300000000000003 Q 0.258 -0.41300000000000003 0.232 -0.398 Q 0.20600000000000002 -0.383 0.1935 -0.3645 Q 0.181 -0.34600000000000003 0.17450000000000002 -0.3155 Q 0.168 -0.28500000000000003 0.167 -0.2685 Q 0.166 -0.252 0.166 -0.227 Q 0.166 -0.034 0.305 -0.034 Q 0.396 -0.034 0.43 -0.116 Q 0.434 -0.126 0.4375 -0.1285 Q 0.441 -0.131 0.454 -0.131 Q 0.47800000000000004 -0.131 0.47800000000000004 -0.117 Q 0.47800000000000004 -0.111 0.47000000000000003 -0.0945 Q 0.462 -0.078 0.4435 -0.0535 Q 0.425 -0.029 0.3835 -0.0115 Q 0.342 0.006 0.28600000000000003 0.006 Q 0.17200000000000001 0.006 0.105 -0.0575 Q 0.038 -0.121 0.038 -0.222 Q 0.038 -0.318 0.1015 -0.3855 Q 0.165 -0.453 0.291 -0.453 Q 0.465 -0.453 0.465 -0.361 Q 0.465 -0.331 0.446 -0.3145 Q 0.427 -0.298 0.402 -0.298 Q 0.379 -0.298 0.3595 -0.3145 Q 0.34 -0.331 0.34 -0.361 Q 0.34 -0.389 0.36 -0.40700000000000003 Z" />
        </g>
      </g>
      <path fill="rgb(21,101,192)" stroke="none" paint-order="stroke fill markers" d=" M 34.20599034246746 107.80572167167412 C 34.20599034246746 110.56714542082808 31.967414091621425 112.80572167167412 29.20599034246746 112.80572167167412 C 26.444566593313493 112.80572167167412 24.20599034246746 110.56714542082808 24.20599034246746 107.80572167167412 C 24.20599034246746 105.04429792252016 26.444566593313493 102.80572167167412 29.20599034246746 102.80572167167412 C 31.967414091621425 102.80572167167412 34.20599034246746 105.04429792252016 34.20599034246746 107.80572167167412 Z" fill-opacity="1" />
      <path fill="none" stroke="rgb(0,0,0)" paint-order="fill stroke markers" d=" M 34.20599034246746 107.80572167167412 C 34.20599034246746 110.56714542082808 31.967414091621425 112.80572167167412 29.20599034246746 112.80572167167412 C 26.444566593313493 112.80572167167412 24.20599034246746 110.56714542082808 24.20599034246746 107.80572167167412 C 24.20599034246746 105.04429792252016 26.444566593313493 102.80572167167412 29.20599034246746 102.80572167167412 C 31.967414091621425 102.80572167167412 34.20599034246746 105.04429792252016 34.20599034246746 107.80572167167412 Z" stroke-opacity="1" stroke-linecap="round" stroke-linejoin="round" stroke-miterlimit="10" />
      <g transform="scale(19,19)">
        <g transform="translate(1.9473684210526316,4.444)">
          <path fill="rgb(21,101,192)" stroke="none" paint-order="stroke fill markers" d=" M 0.374 -0.077 Q 0.331 0.006 0.225 0.006 Q 0.195 0.006 0.165 0.0015 Q 0.135 -0.003 0.10300000000000001 -0.0145 Q 0.07100000000000001 -0.026000000000000002 0.051500000000000004 -0.05 Q 0.032 -0.074 0.032 -0.108 Q 0.032 -0.251 0.357 -0.265 L 0.357 -0.299 Q 0.357 -0.417 0.247 -0.417 Q 0.20800000000000002 -0.417 0.17500000000000002 -0.41000000000000003 Q 0.197 -0.395 0.197 -0.361 Q 0.197 -0.331 0.178 -0.3145 Q 0.159 -0.298 0.134 -0.298 Q 0.111 -0.298 0.0915 -0.3145 Q 0.07200000000000001 -0.331 0.07200000000000001 -0.361 Q 0.07200000000000001 -0.453 0.251 -0.453 Q 0.359 -0.453 0.41500000000000004 -0.41100000000000003 Q 0.47100000000000003 -0.369 0.47100000000000003 -0.299 L 0.47100000000000003 -0.084 Q 0.47100000000000003 -0.07 0.47300000000000003 -0.064 Q 0.47500000000000003 -0.058 0.489 -0.0525 Q 0.503 -0.047 0.532 -0.047 Q 0.541 -0.047 0.545 -0.046 Q 0.549 -0.045 0.5535 -0.04 Q 0.558 -0.035 0.558 -0.024 Q 0.558 -0.013000000000000001 0.5535 -0.0075 Q 0.549 -0.002 0.5435 -0.001 Q 0.538 0 0.526 0 L 0.47800000000000004 0 Q 0.441 0 0.418 -0.007 Q 0.395 -0.014 0.3865 -0.028 Q 0.378 -0.042 0.376 -0.051500000000000004 Q 0.374 -0.061 0.374 -0.077 M 0.357 -0.234 Q 0.335 -0.233 0.3155 -0.2305 Q 0.296 -0.228 0.263 -0.2195 Q 0.23 -0.211 0.20700000000000002 -0.199 Q 0.184 -0.187 0.1665 -0.1635 Q 0.149 -0.14 0.149 -0.109 Q 0.149 -0.076 0.17550000000000002 -0.053 Q 0.202 -0.03 0.24 -0.03 Q 0.253 -0.03 0.2695 -0.034 Q 0.28600000000000003 -0.038 0.3075 -0.048 Q 0.329 -0.058 0.343 -0.082 Q 0.357 -0.106 0.357 -0.139 L 0.357 -0.234 Z" />
        </g>
      </g>
      <path fill="rgb(21,101,192)" stroke="none" paint-order="stroke fill markers" d=" M 423.6089457211922 178.60625901326048 C 423.6089457211922 181.36768276241446 421.37036947034613 183.60625901326048 418.6089457211922 183.60625901326048 C 415.84752197203824 183.60625901326048 413.6089457211922 181.36768276241446 413.6089457211922 178.60625901326048 C 413.6089457211922 175.8448352641065 415.84752197203824 173.60625901326048 418.6089457211922 173.60625901326048 C 421.37036947034613 173.60625901326048 423.6089457211922 175.8448352641065 423.6089457211922 178.60625901326048 Z" fill-opacity="1" />
      <path fill="none" stroke="rgb(0,0,0)" paint-order="fill stroke markers" d=" M 423.6089457211922 178.60625901326048 C 423.6089457211922 181.36768276241446 421.37036947034613 183.60625901326048 418.6089457211922 183.60625901326048 C 415.84752197203824 183.60625901326048 413.6089457211922 181.36768276241446 413.6089457211922 178.60625901326048 C 413.6089457211922 175.8448352641065 415.84752197203824 173.60625901326048 418.6089457211922 173.60625901326048 C 421.37036947034613 173.60625901326048 423.6089457211922 175.8448352641065 423.6089457211922 178.60625901326048 Z" stroke-opacity="1" stroke-linecap="round" stroke-linejoin="round" stroke-miterlimit="10" />
      <g transform="scale(19,19)">
        <g transform="translate(22.473684210526315,8.430842105263157)">
          <path fill="rgb(21,101,192)" stroke="none" paint-order="stroke fill markers" d=" M 0.214 -0.401 Q 0.273 -0.45 0.361 -0.45 Q 0.46900000000000003 -0.45 0.5345 -0.387 Q 0.6 -0.324 0.6 -0.223 Q 0.6 -0.11900000000000001 0.53 -0.0565 Q 0.46 0.006 0.34800000000000003 0.006 Q 0.264 0.006 0.202 -0.056 L 0.153 0 L 0.106 0 L 0.106 -0.6 Q 0.106 -0.628 0.0955 -0.6335000000000001 Q 0.085 -0.639 0.037 -0.639 L 0.037 -0.686 L 0.214 -0.6940000000000001 L 0.214 -0.401 M 0.22 -0.099 Q 0.266 -0.03 0.339 -0.03 Q 0.40900000000000003 -0.03 0.446 -0.082 Q 0.47200000000000003 -0.121 0.47200000000000003 -0.223 Q 0.47200000000000003 -0.248 0.47150000000000003 -0.2625 Q 0.47100000000000003 -0.277 0.468 -0.303 Q 0.465 -0.329 0.457 -0.34550000000000003 Q 0.449 -0.362 0.436 -0.3795 Q 0.423 -0.397 0.401 -0.4055 Q 0.379 -0.41400000000000003 0.35000000000000003 -0.41400000000000003 Q 0.311 -0.41400000000000003 0.2765 -0.396 Q 0.242 -0.378 0.22 -0.35000000000000003 L 0.22 -0.099 Z" />
        </g>
      </g>
      <path fill="rgb(110,109,115)" stroke="none" paint-order="stroke fill markers" d=" M 209.13050332030502 43.466166586857256 C 209.13050332030502 45.67530558618043 207.33964231962818 47.466166586857256 205.13050332030502 47.466166586857256 C 202.92136432098184 47.466166586857256 201.13050332030502 45.67530558618043 201.13050332030502 43.466166586857256 C 201.13050332030502 41.25702758753408 202.92136432098184 39.466166586857256 205.13050332030502 39.466166586857256 C 207.33964231962818 39.466166586857256 209.13050332030502 41.25702758753408 209.13050332030502 43.466166586857256 Z" fill-opacity="1" />
      <path fill="none" stroke="rgb(0,0,0)" paint-order="fill stroke markers" d=" M 209.13050332030502 43.466166586857256 C 209.13050332030502 45.67530558618043 207.33964231962818 47.466166586857256 205.13050332030502 47.466166586857256 C 202.92136432098184 47.466166586857256 201.13050332030502 45.67530558618043 201.13050332030502 43.466166586857256 C 201.13050332030502 41.25702758753408 202.92136432098184 39.466166586857256 205.13050332030502 39.466166586857256 C 207.33964231962818 39.466166586857256 209.13050332030502 41.25702758753408 209.13050332030502 43.466166586857256 Z" stroke-opacity="1" stroke-linecap="round" stroke-linejoin="round" stroke-miterlimit="10" />
      <g transform="scale(19,19)">
        <g transform="translate(10.736842105263158,1.3913684210526316)">
          <path fill="rgb(110,109,115)" stroke="none" paint-order="stroke fill markers" d=" M 0.438 -0.07200000000000001 Q 0.392 0.006 0.294 0.006 Q 0.209 0.006 0.1615 -0.021500000000000002 Q 0.114 -0.049 0.114 -0.123 L 0.114 -0.356 Q 0.114 -0.384 0.10350000000000001 -0.3895 Q 0.093 -0.395 0.045 -0.395 L 0.045 -0.442 L 0.228 -0.45 L 0.228 -0.109 Q 0.228 -0.063 0.241 -0.0465 Q 0.254 -0.03 0.308 -0.03 Q 0.363 -0.03 0.3975 -0.067 Q 0.432 -0.10400000000000001 0.432 -0.165 L 0.432 -0.356 Q 0.432 -0.384 0.4215 -0.3895 Q 0.41100000000000003 -0.395 0.363 -0.395 L 0.363 -0.442 L 0.546 -0.45 L 0.546 -0.08600000000000001 Q 0.546 -0.058 0.5565 -0.0525 Q 0.5670000000000001 -0.047 0.615 -0.047 L 0.615 0 L 0.438 0.006 L 0.438 -0.07200000000000001 Z" />
        </g>
      </g>
      <path fill="rgb(110,109,115)" stroke="none" paint-order="stroke fill markers" d=" M 323.7187266326289 71.25278705259342 C 323.7187266326289 73.46192605191659 321.92786563195205 75.25278705259342 319.7187266326289 75.25278705259342 C 317.5095876333057 75.25278705259342 315.7187266326289 73.46192605191659 315.7187266326289 71.25278705259342 C 315.7187266326289 69.04364805327025 317.5095876333057 67.25278705259342 319.7187266326289 67.25278705259342 C 321.92786563195205 67.25278705259342 323.7187266326289 69.04364805327025 323.7187266326289 71.25278705259342 Z" fill-opacity="1" />
      <path fill="none" stroke="rgb(0,0,0)" paint-order="fill stroke markers" d=" M 323.7187266326289 71.25278705259342 C 323.7187266326289 73.46192605191659 321.92786563195205 75.25278705259342 319.7187266326289 75.25278705259342 C 317.5095876333057 75.25278705259342 315.7187266326289 73.46192605191659 315.7187266326289 71.25278705259342 C 315.7187266326289 69.04364805327025 317.5095876333057 67.25278705259342 319.7187266326289 67.25278705259342 C 321.92786563195205 67.25278705259342 323.7187266326289 69.04364805327025 323.7187266326289 71.25278705259342 Z" stroke-opacity="1" stroke-linecap="round" stroke-linejoin="round" stroke-miterlimit="10" />
      <g transform="scale(19,19)">
        <g transform="translate(17.210526315789473,3.180842105263158)">
          <path fill="rgb(110,109,115)" stroke="none" paint-order="stroke fill markers" d=" M 0.506 -0.376 L 0.34 -0.02 Q 0.329 0.004 0.303 0.004 Q 0.277 0.004 0.265 -0.021 L 0.09 -0.397 L 0.026000000000000002 -0.397 L 0.026000000000000002 -0.444 Q 0.036000000000000004 -0.444 0.08 -0.4425 Q 0.124 -0.441 0.14 -0.441 Q 0.214 -0.441 0.264 -0.444 L 0.264 -0.397 L 0.21 -0.397 L 0.337 -0.124 L 0.453 -0.374 Q 0.458 -0.384 0.458 -0.386 Q 0.458 -0.397 0.41000000000000003 -0.397 L 0.41000000000000003 -0.444 Q 0.47300000000000003 -0.441 0.501 -0.441 Q 0.542 -0.441 0.58 -0.444 L 0.58 -0.397 Q 0.536 -0.397 0.5235 -0.3925 Q 0.511 -0.388 0.506 -0.376 Z" />
        </g>
      </g>
      <path fill="rgb(110,109,115)" stroke="none" paint-order="stroke fill markers" d=" M 290.0358696545695 239.6670719428903 C 290.0358696545695 241.87621094221345 288.2450086538927 243.6670719428903 286.0358696545695 243.6670719428903 C 283.82673065524637 243.6670719428903 282.0358696545695 241.87621094221345 282.0358696545695 239.6670719428903 C 282.0358696545695 237.4579329435671 283.82673065524637 235.6670719428903 286.0358696545695 235.6670719428903 C 288.2450086538927 235.6670719428903 290.0358696545695 237.4579329435671 290.0358696545695 239.6670719428903 Z" fill-opacity="1" />
      <path fill="none" stroke="rgb(0,0,0)" paint-order="fill stroke markers" d=" M 290.0358696545695 239.6670719428903 C 290.0358696545695 241.87621094221345 288.2450086538927 243.6670719428903 286.0358696545695 243.6670719428903 C 283.82673065524637 243.6670719428903 282.0358696545695 241.87621094221345 282.0358696545695 239.6670719428903 C 282.0358696545695 237.4579329435671 283.82673065524637 235.6670719428903 286.0358696545695 235.6670719428903 C 288.2450086538927 235.6670719428903 290.0358696545695 237.4579329435671 290.0358696545695 239.6670719428903 Z" stroke-opacity="1" stroke-linecap="round" stroke-linejoin="round" stroke-miterlimit="10" />
      <path fill="rgb(110,109,115)" stroke="none" paint-order="stroke fill markers" d=" M 178.75418745615698 225.72406177174554 C 178.75418745615698 227.9332007710687 176.96332645548017 229.72406177174554 174.75418745615698 229.72406177174554 C 172.5450484568338 229.72406177174554 170.75418745615698 227.9332007710687 170.75418745615698 225.72406177174554 C 170.75418745615698 223.51492277242235 172.5450484568338 221.72406177174554 174.75418745615698 221.72406177174554 C 176.96332645548017 221.72406177174554 178.75418745615698 223.51492277242235 178.75418745615698 225.72406177174554 Z" fill-opacity="1" />
      <path fill="none" stroke="rgb(0,0,0)" paint-order="fill stroke markers" d=" M 178.75418745615698 225.72406177174554 C 178.75418745615698 227.9332007710687 176.96332645548017 229.72406177174554 174.75418745615698 229.72406177174554 C 172.5450484568338 229.72406177174554 170.75418745615698 227.9332007710687 170.75418745615698 225.72406177174554 C 170.75418745615698 223.51492277242235 172.5450484568338 221.72406177174554 174.75418745615698 221.72406177174554 C 176.96332645548017 221.72406177174554 178.75418745615698 223.51492277242235 178.75418745615698 225.72406177174554 Z" stroke-opacity="1" stroke-linecap="round" stroke-linejoin="round" stroke-miterlimit="10" />
    </g>
  </g>
</svg>