<svg version="1.1" xmlns="http://www.w3.org/2000/svg" xmlns:xlink="http://www.w3.org/1999/xlink" width="350" height="350">
  <defs>
    <clipPath id="KXnOtFvmModg">
      <path fill="none" stroke="none" d=" M 0 0 L 350 0 L 350 350 L 0 350 L 0 0 Z" />
    </clipPath>
  </defs>
  <g transform="scale(1,1)" clip-path="url(#KXnOtFvmModg)">
    <g>
      <path fill="none" stroke="rgb(37,37,37)" paint-order="fill stroke markers" d=" M 151.5 2.5 L 151.5 1414.5" stroke-opacity="1" stroke-miterlimit="10" />
      <path fill="none" stroke="rgb(37,37,37)" paint-order="fill stroke markers" d=" M 151.5 1.5 L 147.5 5.5" stroke-opacity="1" stroke-miterlimit="10" />
      <path fill="none" stroke="rgb(37,37,37)" paint-order="fill stroke markers" d=" M 151.5 1.5 L 155.5 5.5" stroke-opacity="1" stroke-miterlimit="10" />
      <path fill="none" stroke="rgb(37,37,37)" paint-order="fill stroke markers" d=" M 0.5 222.5 L 2472.5 222.5" stroke-opacity="1" stroke-miterlimit="10" />
      <path fill="none" stroke="rgb(37,37,37)" paint-order="fill stroke markers" d=" M 2473.5 222.5 L 2469.5 218.5" stroke-opacity="1" stroke-miterlimit="10" />
      <path fill="none" stroke="rgb(37,37,37)" paint-order="fill stroke markers" d=" M 2473.5 222.5 L 2469.5 226.5" stroke-opacity="1" stroke-miterlimit="10" />
      <path fill="none" stroke="rgb(37,37,37)" paint-order="fill stroke markers" d=" M 36.5 222.5 L 36.5 225.5" stroke-opacity="1" stroke-miterlimit="10" />
      <path fill="none" stroke="rgb(37,37,37)" paint-order="fill stroke markers" d=" M 93.5 222.5 L 93.5 225.5" stroke-opacity="1" stroke-miterlimit="10" />
      <path fill="none" stroke="rgb(37,37,37)" paint-order="fill stroke markers" d=" M 151.5 222.5 L 151.5 225.5" stroke-opacity="1" stroke-miterlimit="10" />
      <path fill="none" stroke="rgb(37,37,37)" paint-order="fill stroke markers" d=" M 209.5 222.5 L 209.5 225.5" stroke-opacity="1" stroke-miterlimit="10" />
      <path fill="none" stroke="rgb(37,37,37)" paint-order="fill stroke markers" d=" M 266.5 222.5 L 266.5 225.5" stroke-opacity="1" stroke-miterlimit="10" />
      <path fill="none" stroke="rgb(37,37,37)" paint-order="fill stroke markers" d=" M 322.5 222.5 L 322.5 225.5" stroke-opacity="1" stroke-miterlimit="10" />
      <path fill="none" stroke="rgb(37,37,37)" paint-order="fill stroke markers" d=" M 2461.5 222.5 L 2461.5 225.5" stroke-opacity="1" stroke-miterlimit="10" />
      <path fill="none" stroke="rgb(37,37,37)" paint-order="fill stroke markers" d=" M 148.5 1377.5 L 151.5 1377.5" stroke-opacity="1" stroke-miterlimit="10" />
      <path fill="none" stroke="rgb(37,37,37)" paint-order="fill stroke markers" d=" M 148.5 1319.5 L 151.5 1319.5" stroke-opacity="1" stroke-miterlimit="10" />
      <path fill="none" stroke="rgb(37,37,37)" paint-order="fill stroke markers" d=" M 148.5 1262.5 L 151.5 1262.5" stroke-opacity="1" stroke-miterlimit="10" />
      <path fill="none" stroke="rgb(37,37,37)" paint-order="fill stroke markers" d=" M 148.5 1204.5 L 151.5 1204.5" stroke-opacity="1" stroke-miterlimit="10" />
      <path fill="none" stroke="rgb(37,37,37)" paint-order="fill stroke markers" d=" M 148.5 1146.5 L 151.5 1146.5" stroke-opacity="1" stroke-miterlimit="10" />
      <path fill="none" stroke="rgb(37,37,37)" paint-order="fill stroke markers" d=" M 148.5 1088.5 L 151.5 1088.5" stroke-opacity="1" stroke-miterlimit="10" />
      <path fill="none" stroke="rgb(37,37,37)" paint-order="fill stroke markers" d=" M 148.5 1031.5 L 151.5 1031.5" stroke-opacity="1" stroke-miterlimit="10" />
      <path fill="none" stroke="rgb(37,37,37)" paint-order="fill stroke markers" d=" M 148.5 973.5 L 151.5 973.5" stroke-opacity="1" stroke-miterlimit="10" />
      <path fill="none" stroke="rgb(37,37,37)" paint-order="fill stroke markers" d=" M 148.5 915.5 L 151.5 915.5" stroke-opacity="1" stroke-miterlimit="10" />
      <path fill="none" stroke="rgb(37,37,37)" paint-order="fill stroke markers" d=" M 148.5 858.5 L 151.5 858.5" stroke-opacity="1" stroke-miterlimit="10" />
      <path fill="none" stroke="rgb(37,37,37)" paint-order="fill stroke markers" d=" M 148.5 800.5 L 151.5 800.5" stroke-opacity="1" stroke-miterlimit="10" />
      <path fill="none" stroke="rgb(37,37,37)" paint-order="fill stroke markers" d=" M 148.5 742.5 L 151.5 742.5" stroke-opacity="1" stroke-miterlimit="10" />
      <path fill="none" stroke="rgb(37,37,37)" paint-order="fill stroke markers" d=" M 148.5 684.5 L 151.5 684.5" stroke-opacity="1" stroke-miterlimit="10" />
      <path fill="none" stroke="rgb(37,37,37)" paint-order="fill stroke markers" d=" M 148.5 627.5 L 151.5 627.5" stroke-opacity="1" stroke-miterlimit="10" />
      <path fill="none" stroke="rgb(37,37,37)" paint-order="fill stroke markers" d=" M 148.5 569.5 L 151.5 569.5" stroke-opacity="1" stroke-miterlimit="10" />
      <path fill="none" stroke="rgb(37,37,37)" paint-order="fill stroke markers" d=" M 148.5 511.5 L 151.5 511.5" stroke-opacity="1" stroke-miterlimit="10" />
      <path fill="none" stroke="rgb(37,37,37)" paint-order="fill stroke markers" d=" M 148.5 453.5 L 151.5 453.5" stroke-opacity="1" stroke-miterlimit="10" />
      <path fill="none" stroke="rgb(37,37,37)" paint-order="fill stroke markers" d=" M 148.5 396.5 L 151.5 396.5" stroke-opacity="1" stroke-miterlimit="10" />
      <path fill="none" stroke="rgb(37,37,37)" paint-order="fill stroke markers" d=" M 148.5 338.5 L 151.5 338.5" stroke-opacity="1" stroke-miterlimit="10" />
      <path fill="none" stroke="rgb(37,37,37)" paint-order="fill stroke markers" d=" M 148.5 280.5 L 151.5 280.5" stroke-opacity="1" stroke-miterlimit="10" />
      <path fill="none" stroke="rgb(37,37,37)" paint-order="fill stroke markers" d=" M 148.5 165.5 L 151.5 165.5" stroke-opacity="1" stroke-miterlimit="10" />
      <path fill="none" stroke="rgb(37,37,37)" paint-order="fill stroke markers" d=" M 148.5 107.5 L 151.5 107.5" stroke-opacity="1" stroke-miterlimit="10" />
      <path fill="none" stroke="rgb(37,37,37)" paint-order="fill stroke markers" d=" M 148.5 49.5 L 151.5 49.5" stroke-opacity="1" stroke-miterlimit="10" />
      <path fill="none" stroke="rgb(110,109,115)" paint-order="fill stroke markers" d=" M -5 327.22777357463485 L 493.3416603619481 -5" stroke-opacity="0.8" stroke-linejoin="round" stroke-miterlimit="10" stroke-width="2.5" stroke-dasharray="10.5,8" />
      <g transform="scale(19,19)">
        <g transform="translate(2.4210526315789473,16.893526315789472)">
          <path fill="rgb(110,109,115)" stroke="none" paint-order="stroke fill markers" d=" M 0.374 -0.605 L 0.23900000000000002 -0.065 Q 0.234 -0.047 0.234 -0.042 Q 0.234 -0.034 0.243 -0.032 L 0.243 -0.032 L 0.243 -0.032 L 0.247 -0.032 Q 0.253 -0.031 0.269 -0.031 L 0.363 -0.031 Q 0.509 -0.031 0.5750000000000001 -0.147 Q 0.592 -0.177 0.614 -0.23700000000000002 Q 0.622 -0.256 0.627 -0.257 L 0.628 -0.258 L 0.631 -0.258 Q 0.642 -0.258 0.643 -0.247 Q 0.643 -0.244 0.639 -0.233 L 0.56 -0.017 Q 0.555 -0.002 0.547 -0.001 L 0.547 -0.001 L 0.546 -0.001 Q 0.542 0 0.529 0 L 0.066 0 Q 0.041 0 0.039 -0.011 Q 0.039 -0.029 0.054 -0.031 L 0.066 -0.031 Q 0.131 -0.031 0.14400000000000002 -0.045 Q 0.15 -0.052000000000000005 0.156 -0.073 Q 0.156 -0.074 0.157 -0.078 L 0.291 -0.615 Q 0.295 -0.631 0.295 -0.634 Q 0.295 -0.646 0.279 -0.649 L 0.278 -0.649 L 0.277 -0.649 Q 0.274 -0.649 0.268 -0.65 Q 0.251 -0.652 0.23 -0.652 Q 0.20400000000000001 -0.652 0.202 -0.663 Q 0.202 -0.683 0.221 -0.683 L 0.353 -0.68 L 0.354 -0.68 L 0.501 -0.683 L 0.502 -0.683 Q 0.518 -0.683 0.518 -0.671 Q 0.518 -0.655 0.505 -0.653 Q 0.499 -0.652 0.48 -0.652 Q 0.401 -0.652 0.386 -0.635 Q 0.38 -0.628 0.374 -0.605 Z" />
        </g>
      </g>
      <path fill="rgb(110,109,115)" stroke="none" paint-order="stroke fill markers" d=" M 324.727873303003 107.409191372631 L 308.22554246530245 113.30288095752412 L 309.88964305397815 115.79903184053765 L 150.81271505319418 221.8503171743945 C 150.2383041923754 222.23325774827367 150.08308685667424 223.00934442677956 150.46602743055342 223.58375528759834 C 150.70689636093854 223.94505868317603 151.1033091173971 224.14051288428212 151.50724066675664 224.14051288428212 C 151.74549148218915 224.14051288428212 151.9863580785162 224.07251455373316 152.19946554375727 223.9304429102391 L 311.2763935445412 117.87915757638226 L 312.9404941332169 120.37530845939578 L 324.727873303003 107.409191372631 Z" fill-opacity="0.8" />
      <g transform="scale(19,19)">
        <g transform="translate(12.052631578947368,8.12821052631579)">
          <path fill="rgb(110,109,115)" stroke="none" paint-order="stroke fill markers" d=" M 0.506 -0.376 L 0.34 -0.02 Q 0.329 0.004 0.303 0.004 Q 0.277 0.004 0.265 -0.021 L 0.09 -0.397 L 0.026000000000000002 -0.397 L 0.026000000000000002 -0.444 Q 0.036000000000000004 -0.444 0.08 -0.4425 Q 0.124 -0.441 0.14 -0.441 Q 0.214 -0.441 0.264 -0.444 L 0.264 -0.397 L 0.21 -0.397 L 0.337 -0.124 L 0.453 -0.374 Q 0.458 -0.384 0.458 -0.386 Q 0.458 -0.397 0.41000000000000003 -0.397 L 0.41000000000000003 -0.444 Q 0.47300000000000003 -0.441 0.501 -0.441 Q 0.542 -0.441 0.58 -0.444 L 0.58 -0.397 Q 0.536 -0.397 0.5235 -0.3925 Q 0.511 -0.388 0.506 -0.376 Z" />
        </g>
      </g>
      <path fill="rgb(224,116,21)" stroke="none" paint-order="stroke fill markers" d=" M 36.0249016287909 49.668597037788125 L 41.9185912136839 66.17092787548872 L 44.41474209669741 64.50682728681305 L 44.41474209669744 64.50682728681305 L 150.46602743055342 223.58375528759834 C 150.70689636093854 223.94505868317603 151.1033091173971 224.14051288428212 151.50724066675664 224.14051288428212 C 151.74549148218915 224.14051288428212 151.9863580785162 224.07251455373316 152.19946554375727 223.9304429102391 C 152.77387640457604 223.5475023363599 152.9290937402772 222.77141565785402 152.54615316639803 222.19700479703525 L 46.49486783254205 63.12007679624997 L 48.99101871555558 61.45597620757429 L 36.02490162879091 49.668597037788125 Z" fill-opacity="0.8" />
      <g transform="scale(19,19)">
        <g transform="translate(4.105263157894737,8.272947368421052)">
          <path fill="rgb(224,116,21)" stroke="none" paint-order="stroke fill markers" d=" M 0.601 -0.047 L 0.601 0 L 0.418 0.006 L 0.418 -0.043000000000000003 Q 0.357 0.006 0.278 0.006 Q 0.168 0.006 0.10300000000000001 -0.0575 Q 0.038 -0.121 0.038 -0.221 Q 0.038 -0.325 0.108 -0.3875 Q 0.178 -0.45 0.289 -0.45 Q 0.366 -0.45 0.424 -0.405 L 0.424 -0.6 Q 0.424 -0.628 0.41350000000000003 -0.6335000000000001 Q 0.403 -0.639 0.355 -0.639 L 0.355 -0.686 L 0.532 -0.6940000000000001 L 0.532 -0.08600000000000001 Q 0.532 -0.058 0.5425 -0.0525 Q 0.553 -0.047 0.601 -0.047 M 0.418 -0.353 Q 0.372 -0.41400000000000003 0.299 -0.41400000000000003 Q 0.228 -0.41400000000000003 0.192 -0.362 Q 0.166 -0.323 0.166 -0.221 Q 0.166 -0.196 0.1665 -0.1815 Q 0.167 -0.167 0.17 -0.14100000000000001 Q 0.17300000000000001 -0.115 0.181 -0.0985 Q 0.189 -0.082 0.202 -0.0645 Q 0.215 -0.047 0.23700000000000002 -0.0385 Q 0.259 -0.03 0.28800000000000003 -0.03 Q 0.365 -0.03 0.418 -0.10300000000000001 L 0.418 -0.353 Z" />
        </g>
      </g>
    </g>
  </g>
</svg>