<svg version="1.1" xmlns="http://www.w3.org/2000/svg" xmlns:xlink="http://www.w3.org/1999/xlink" width="460" height="350"><defs><clipPath id="XRZEeXDiuqBf"><path fill="none" stroke="none" d=" M 0 0 L 460 0 L 460 350 L 0 350 L 0 0 Z"/></clipPath></defs><g transform="scale(1,1)" clip-path="url(#XRZEeXDiuqBf)"><g><path fill="none" stroke="rgb(110,109,115)" paint-order="fill stroke markers" d=" M 300.2997902135482 221.8528682158427 C 300.2997902135482 273.25554782363275 258.629685132754 314.92565290442695 207.22700552496397 314.92565290442695 C 155.82432591717395 314.92565290442695 114.15422083637975 273.25554782363275 114.15422083637975 221.8528682158427 C 114.15422083637975 170.45018860805266 155.82432591717395 128.78008352725845 207.22700552496397 128.78008352725845 C 258.629685132754 128.78008352725845 300.2997902135482 170.45018860805266 300.2997902135482 221.8528682158427 Z" stroke-opacity="0.8" stroke-linejoin="round" stroke-miterlimit="10" stroke-width="2.5" stroke-dasharray="10.5,8"/><path fill="rgb(0,0,0)" stroke="none" paint-order="stroke fill markers" fill-rule="evenodd" d=" M 230.55725022023574 93.5365223918479 L 209.68621766312583 89.74178919964609 L 205.8914844709224 110.61282175675716 L 226.76251702803395 114.40755494895781 L 230.55725022023574 93.5365223918479" fill-opacity="0.09803921568627451"/><path fill="none" stroke="rgb(0,0,0)" paint-order="fill stroke markers" d=" M 230.55725022023574 93.5365223918479 L 209.68621766312583 89.74178919964609 L 205.8914844709224 110.61282175675716 L 226.76251702803395 114.40755494895781 L 230.55725022023574 93.5365223918479" stroke-opacity="0.6" stroke-linecap="round" stroke-linejoin="round" stroke-miterlimit="10" stroke-width="2"/><path fill="none" stroke="rgb(110,109,115)" paint-order="fill stroke markers" d=" M -5 50.707931442714106 L 2479 502.34429507907794" stroke-opacity="0.8" stroke-linejoin="round" stroke-miterlimit="10" stroke-width="2.5" stroke-dasharray="10.5,8"/><path fill="none" stroke="rgb(110,109,115)" paint-order="fill stroke markers" d=" M -5 1389.101398603145 L 248.47298156420808 -5" stroke-opacity="0.8" stroke-linejoin="round" stroke-miterlimit="10" stroke-width="2.5" stroke-dasharray="10.5,8"/><path fill="none" stroke="rgb(110,109,115)" paint-order="fill stroke markers" d=" M 83.12995927351835 66.73156040153563 L 424.39683646499384 128.78008352725845" stroke-opacity="0.8" stroke-linecap="round" stroke-linejoin="round" stroke-miterlimit="10" stroke-width="2.5"/><path fill="none" stroke="rgb(110,109,115)" paint-order="fill stroke markers" d=" M 207.22700552496397 221.8528682158427 L 230.55725022023574 93.5365223918479" stroke-opacity="0.8" stroke-linecap="round" stroke-linejoin="round" stroke-miterlimit="10" stroke-width="2.5"/><path fill="rgb(21,101,192)" stroke="none" paint-order="stroke fill markers" d=" M 212.22700552496397 221.8528682158427 C 212.22700552496397 224.61429196499668 209.98842927411795 226.8528682158427 207.22700552496397 226.8528682158427 C 204.46558177581 226.8528682158427 202.22700552496397 224.61429196499668 202.22700552496397 221.8528682158427 C 202.22700552496397 219.09144446668873 204.46558177581 216.8528682158427 207.22700552496397 216.8528682158427 C 209.98842927411795 216.8528682158427 212.22700552496397 219.09144446668873 212.22700552496397 221.8528682158427 Z" fill-opacity="1"/><path fill="none" stroke="rgb(0,0,0)" paint-order="fill stroke markers" d=" M 212.22700552496397 221.8528682158427 C 212.22700552496397 224.61429196499668 209.98842927411795 226.8528682158427 207.22700552496397 226.8528682158427 C 204.46558177581 226.8528682158427 202.22700552496397 224.61429196499668 202.22700552496397 221.8528682158427 C 202.22700552496397 219.09144446668873 204.46558177581 216.8528682158427 207.22700552496397 216.8528682158427 C 209.98842927411795 216.8528682158427 212.22700552496397 219.09144446668873 212.22700552496397 221.8528682158427 Z" stroke-opacity="1" stroke-linecap="round" stroke-linejoin="round" stroke-miterlimit="10"/><g transform="scale(19,19)"><g transform="translate(11.68421052631579,12.022947368421054)"><path fill="rgb(21,101,192)" stroke="none" paint-order="stroke fill markers" d=" M 0.36 -0.40700000000000003 Q 0.334 -0.41300000000000003 0.295 -0.41300000000000003 Q 0.258 -0.41300000000000003 0.232 -0.398 Q 0.20600000000000002 -0.383 0.1935 -0.3645 Q 0.181 -0.34600000000000003 0.17450000000000002 -0.3155 Q 0.168 -0.28500000000000003 0.167 -0.2685 Q 0.166 -0.252 0.166 -0.227 Q 0.166 -0.034 0.305 -0.034 Q 0.396 -0.034 0.43 -0.116 Q 0.434 -0.126 0.4375 -0.1285 Q 0.441 -0.131 0.454 -0.131 Q 0.47800000000000004 -0.131 0.47800000000000004 -0.117 Q 0.47800000000000004 -0.111 0.47000000000000003 -0.0945 Q 0.462 -0.078 0.4435 -0.0535 Q 0.425 -0.029 0.3835 -0.0115 Q 0.342 0.006 0.28600000000000003 0.006 Q 0.17200000000000001 0.006 0.105 -0.0575 Q 0.038 -0.121 0.038 -0.222 Q 0.038 -0.318 0.1015 -0.3855 Q 0.165 -0.453 0.291 -0.453 Q 0.465 -0.453 0.465 -0.361 Q 0.465 -0.331 0.446 -0.3145 Q 0.427 -0.298 0.402 -0.298 Q 0.379 -0.298 0.3595 -0.3145 Q 0.34 -0.331 0.34 -0.361 Q 0.34 -0.389 0.36 -0.40700000000000003 Z"/></g></g><path fill="rgb(21,101,192)" stroke="none" paint-order="stroke fill markers" d=" M 88.12995927351835 66.73156040153563 C 88.12995927351835 69.4929841506896 85.89138302267231 71.73156040153563 83.12995927351835 71.73156040153563 C 80.36853552436439 71.73156040153563 78.12995927351835 69.4929841506896 78.12995927351835 66.73156040153563 C 78.12995927351835 63.97013665238166 80.36853552436439 61.73156040153563 83.12995927351835 61.73156040153563 C 85.89138302267231 61.73156040153563 88.12995927351835 63.97013665238166 88.12995927351835 66.73156040153563 Z" fill-opacity="1"/><path fill="none" stroke="rgb(0,0,0)" paint-order="fill stroke markers" d=" M 88.12995927351835 66.73156040153563 C 88.12995927351835 69.4929841506896 85.89138302267231 71.73156040153563 83.12995927351835 71.73156040153563 C 80.36853552436439 71.73156040153563 78.12995927351835 69.4929841506896 78.12995927351835 66.73156040153563 C 78.12995927351835 63.97013665238166 80.36853552436439 61.73156040153563 83.12995927351835 61.73156040153563 C 85.89138302267231 61.73156040153563 88.12995927351835 63.97013665238166 88.12995927351835 66.73156040153563 Z" stroke-opacity="1" stroke-linecap="round" stroke-linejoin="round" stroke-miterlimit="10"/><g transform="scale(19,19)"><g transform="translate(4.7894736842105265,2.2861052631578946)"><path fill="rgb(21,101,192)" stroke="none" paint-order="stroke fill markers" d=" M 0.374 -0.077 Q 0.331 0.006 0.225 0.006 Q 0.195 0.006 0.165 0.0015 Q 0.135 -0.003 0.10300000000000001 -0.0145 Q 0.07100000000000001 -0.026000000000000002 0.051500000000000004 -0.05 Q 0.032 -0.074 0.032 -0.108 Q 0.032 -0.251 0.357 -0.265 L 0.357 -0.299 Q 0.357 -0.417 0.247 -0.417 Q 0.20800000000000002 -0.417 0.17500000000000002 -0.41000000000000003 Q 0.197 -0.395 0.197 -0.361 Q 0.197 -0.331 0.178 -0.3145 Q 0.159 -0.298 0.134 -0.298 Q 0.111 -0.298 0.0915 -0.3145 Q 0.07200000000000001 -0.331 0.07200000000000001 -0.361 Q 0.07200000000000001 -0.453 0.251 -0.453 Q 0.359 -0.453 0.41500000000000004 -0.41100000000000003 Q 0.47100000000000003 -0.369 0.47100000000000003 -0.299 L 0.47100000000000003 -0.084 Q 0.47100000000000003 -0.07 0.47300000000000003 -0.064 Q 0.47500000000000003 -0.058 0.489 -0.0525 Q 0.503 -0.047 0.532 -0.047 Q 0.541 -0.047 0.545 -0.046 Q 0.549 -0.045 0.5535 -0.04 Q 0.558 -0.035 0.558 -0.024 Q 0.558 -0.013000000000000001 0.5535 -0.0075 Q 0.549 -0.002 0.5435 -0.001 Q 0.538 0 0.526 0 L 0.47800000000000004 0 Q 0.441 0 0.418 -0.007 Q 0.395 -0.014 0.3865 -0.028 Q 0.378 -0.042 0.376 -0.051500000000000004 Q 0.374 -0.061 0.374 -0.077 M 0.357 -0.234 Q 0.335 -0.233 0.3155 -0.2305 Q 0.296 -0.228 0.263 -0.2195 Q 0.23 -0.211 0.20700000000000002 -0.199 Q 0.184 -0.187 0.1665 -0.1635 Q 0.149 -0.14 0.149 -0.109 Q 0.149 -0.076 0.17550000000000002 -0.053 Q 0.202 -0.03 0.24 -0.03 Q 0.253 -0.03 0.2695 -0.034 Q 0.28600000000000003 -0.038 0.3075 -0.048 Q 0.329 -0.058 0.343 -0.082 Q 0.357 -0.106 0.357 -0.139 L 0.357 -0.234 Z"/></g></g><path fill="rgb(21,101,192)" stroke="none" paint-order="stroke fill markers" d=" M 429.39683646499384 128.78008352725845 C 429.39683646499384 131.54150727641243 427.1582602141478 133.78008352725845 424.39683646499384 133.78008352725845 C 421.6354127158399 133.78008352725845 419.39683646499384 131.54150727641243 419.39683646499384 128.78008352725845 C 419.39683646499384 126.01865977810449 421.6354127158399 123.78008352725845 424.39683646499384 123.78008352725845 C 427.1582602141478 123.78008352725845 429.39683646499384 126.01865977810449 429.39683646499384 128.78008352725845 Z" fill-opacity="1"/><path fill="none" stroke="rgb(0,0,0)" paint-order="fill stroke markers" d=" M 429.39683646499384 128.78008352725845 C 429.39683646499384 131.54150727641243 427.1582602141478 133.78008352725845 424.39683646499384 133.78008352725845 C 421.6354127158399 133.78008352725845 419.39683646499384 131.54150727641243 419.39683646499384 128.78008352725845 C 419.39683646499384 126.01865977810449 421.6354127158399 123.78008352725845 424.39683646499384 123.78008352725845 C 427.1582602141478 123.78008352725845 429.39683646499384 126.01865977810449 429.39683646499384 128.78008352725845 Z" stroke-opacity="1" stroke-linecap="round" stroke-linejoin="round" stroke-miterlimit="10"/><g transform="scale(19,19)"><g transform="translate(22.736842105263158,5.799263157894737)"><path fill="rgb(21,101,192)" stroke="none" paint-order="stroke fill markers" d=" M 0.214 -0.401 Q 0.273 -0.45 0.361 -0.45 Q 0.46900000000000003 -0.45 0.5345 -0.387 Q 0.6 -0.324 0.6 -0.223 Q 0.6 -0.11900000000000001 0.53 -0.0565 Q 0.46 0.006 0.34800000000000003 0.006 Q 0.264 0.006 0.202 -0.056 L 0.153 0 L 0.106 0 L 0.106 -0.6 Q 0.106 -0.628 0.0955 -0.6335000000000001 Q 0.085 -0.639 0.037 -0.639 L 0.037 -0.686 L 0.214 -0.6940000000000001 L 0.214 -0.401 M 0.22 -0.099 Q 0.266 -0.03 0.339 -0.03 Q 0.40900000000000003 -0.03 0.446 -0.082 Q 0.47200000000000003 -0.121 0.47200000000000003 -0.223 Q 0.47200000000000003 -0.248 0.47150000000000003 -0.2625 Q 0.47100000000000003 -0.277 0.468 -0.303 Q 0.465 -0.329 0.457 -0.34550000000000003 Q 0.449 -0.362 0.436 -0.3795 Q 0.423 -0.397 0.401 -0.4055 Q 0.379 -0.41400000000000003 0.35000000000000003 -0.41400000000000003 Q 0.311 -0.41400000000000003 0.2765 -0.396 Q 0.242 -0.378 0.22 -0.35000000000000003 L 0.22 -0.099 Z"/></g></g></g></g></svg>