<?xml version="1.0" encoding="UTF-8" standalone="no"?>
<!-- Created with Inkscape (http://www.inkscape.org/) -->

<svg
   xmlns:dc="http://purl.org/dc/elements/1.1/"
   xmlns:cc="http://creativecommons.org/ns#"
   xmlns:rdf="http://www.w3.org/1999/02/22-rdf-syntax-ns#"
   xmlns:svg="http://www.w3.org/2000/svg"
   xmlns="http://www.w3.org/2000/svg"
   xmlns:sodipodi="http://sodipodi.sourceforge.net/DTD/sodipodi-0.dtd"
   xmlns:inkscape="http://www.inkscape.org/namespaces/inkscape"
   width="190"
   height="270"
   id="svg5627"
   sodipodi:version="0.32"
   inkscape:version="0.91 r13725"
   version="1.0"
   sodipodi:docname="Vector_addition2.svg"
   inkscape:output_extension="org.inkscape.output.svg.inkscape">
  <defs
     id="defs5629">
    <marker
       inkscape:stockid="Arrow1Mend"
       orient="auto"
       refY="0.0"
       refX="0.0"
       id="marker4442"
       style="overflow:visible;"
       inkscape:isstock="true">
      <path
         id="path4444"
         d="M 0.0,0.0 L 5.0,-5.0 L -12.5,0.0 L 5.0,5.0 L 0.0,0.0 z "
         style="fill-rule:evenodd;stroke:#3465a4;stroke-width:1pt;stroke-opacity:1;fill:#3465a4;fill-opacity:1"
         transform="scale(0.4) rotate(180) translate(10,0)" />
    </marker>
    <marker
       inkscape:stockid="Arrow1Mend"
       orient="auto"
       refY="0.0"
       refX="0.0"
       id="marker4438"
       style="overflow:visible;"
       inkscape:isstock="true">
      <path
         id="path4440"
         d="M 0.0,0.0 L 5.0,-5.0 L -12.5,0.0 L 5.0,5.0 L 0.0,0.0 z "
         style="fill-rule:evenodd;stroke:#5c3566;stroke-width:1pt;stroke-opacity:1;fill:#5c3566;fill-opacity:1"
         transform="scale(0.4) rotate(180) translate(10,0)" />
    </marker>
    <marker
       inkscape:stockid="Arrow1Mend"
       orient="auto"
       refY="0.0"
       refX="0.0"
       id="marker4435"
       style="overflow:visible;"
       inkscape:isstock="true">
      <path
         id="path4185"
         d="M 0.0,0.0 L 5.0,-5.0 L -12.5,0.0 L 5.0,5.0 L 0.0,0.0 z "
         style="fill-rule:evenodd;stroke:#d40000;stroke-width:1pt;stroke-opacity:1;fill:#d40000;fill-opacity:1"
         transform="scale(0.4) rotate(180) translate(10,0)" />
    </marker>
    <marker
       inkscape:stockid="Arrow1Lend"
       orient="auto"
       refY="0.0"
       refX="0.0"
       id="marker4432"
       style="overflow:visible;"
       inkscape:isstock="true">
      <path
         id="path4179"
         d="M 0.0,0.0 L 5.0,-5.0 L -12.5,0.0 L 5.0,5.0 L 0.0,0.0 z "
         style="fill-rule:evenodd;stroke:#d40000;stroke-width:1pt;stroke-opacity:1;fill:#d40000;fill-opacity:1"
         transform="scale(0.8) rotate(180) translate(12.5,0)" />
    </marker>
    <inkscape:perspective
       sodipodi:type="inkscape:persp3d"
       inkscape:vp_x="0 : 117.5 : 1"
       inkscape:vp_y="0 : 1000 : 0"
       inkscape:vp_z="445 : 117.5 : 1"
       inkscape:persp3d-origin="222.5 : 78.333333 : 1"
       id="perspective2524" />
    <marker
       inkscape:stockid="Arrow1Send"
       orient="auto"
       refY="0"
       refX="0"
       id="Arrow1Send"
       style="overflow:visible">
      <path
         id="path2918"
         d="M 0,0 L 5,-5 L -12.5,0 L 5,5 L 0,0 z"
         style="fill-rule:evenodd;stroke:#000000;stroke-width:1pt;marker-start:none"
         transform="matrix(-0.2,0,0,-0.2,-1.2,0)" />
    </marker>
    <marker
       inkscape:stockid="TriangleOutS"
       orient="auto"
       refY="0"
       refX="0"
       id="TriangleOutS"
       style="overflow:visible">
      <path
         id="path2829"
         d="M 5.77,0 L -2.88,5 L -2.88,-5 L 5.77,0 z"
         style="fill-rule:evenodd;stroke:#000000;stroke-width:1pt;marker-start:none"
         transform="scale(0.2,0.2)" />
    </marker>
    <marker
       inkscape:stockid="TriangleOutM"
       orient="auto"
       refY="0"
       refX="0"
       id="TriangleOutM"
       style="overflow:visible">
      <path
         id="path2832"
         d="M 5.77,0 L -2.88,5 L -2.88,-5 L 5.77,0 z"
         style="fill-rule:evenodd;stroke:#000000;stroke-width:1pt;marker-start:none"
         transform="scale(0.4,0.4)" />
    </marker>
    <marker
       inkscape:stockid="Arrow1Lend"
       orient="auto"
       refY="0"
       refX="0"
       id="Arrow1Lend"
       style="overflow:visible">
      <path
         id="path2930"
         d="M 0,0 L 5,-5 L -12.5,0 L 5,5 L 0,0 z"
         style="fill-rule:evenodd;stroke:#000000;stroke-width:1pt;marker-start:none"
         transform="matrix(-0.8,0,0,-0.8,-10,0)" />
    </marker>
    <marker
       inkscape:stockid="Arrow1Mend"
       orient="auto"
       refY="0"
       refX="0"
       id="Arrow1Mend"
       style="overflow:visible">
      <path
         id="path2924"
         d="M 0,0 L 5,-5 L -12.5,0 L 5,5 L 0,0 z"
         style="fill-rule:evenodd;stroke:#000000;stroke-width:1pt;marker-start:none"
         transform="matrix(-0.4,0,0,-0.4,-4,0)" />
    </marker>
    <marker
       inkscape:stockid="Arrow2Lend"
       orient="auto"
       refY="0"
       refX="0"
       id="Arrow2Lend"
       style="overflow:visible">
      <path
         id="path2912"
         style="font-size:12px;fill-rule:evenodd;stroke-width:0.625;stroke-linejoin:round"
         d="M 8.7185878,4.0337352 L -2.2072895,0.016013256 L 8.7185884,-4.0017078 C 6.97309,-1.6296469 6.9831476,1.6157441 8.7185878,4.0337352 z"
         transform="matrix(-1.1,0,0,-1.1,-1.1,0)" />
    </marker>
    <marker
       inkscape:stockid="Arrow1Mend"
       orient="auto"
       refY="0"
       refX="0"
       id="Arrow1Mend-0"
       style="overflow:visible">
      <path
         inkscape:connector-curvature="0"
         id="path2924-0"
         d="M 0,0 5,-5 -12.5,0 5,5 0,0 Z"
         style="fill-rule:evenodd;stroke:#000000;stroke-width:1pt;marker-start:none"
         transform="matrix(-0.4,0,0,-0.4,-4,0)" />
    </marker>
    <marker
       inkscape:stockid="Arrow1Mend"
       orient="auto"
       refY="0"
       refX="0"
       id="Arrow1Mend-5"
       style="overflow:visible">
      <path
         inkscape:connector-curvature="0"
         id="path2924-6"
         d="M 0,0 5,-5 -12.5,0 5,5 0,0 Z"
         style="fill-rule:evenodd;stroke:#000000;stroke-width:1pt;marker-start:none"
         transform="matrix(-0.4,0,0,-0.4,-4,0)" />
    </marker>
  </defs>
  <sodipodi:namedview
     id="base"
     pagecolor="#ffffff"
     bordercolor="#666666"
     borderopacity="1.0"
     gridtolerance="50"
     guidetolerance="10"
     objecttolerance="10"
     inkscape:pageopacity="0.0"
     inkscape:pageshadow="2"
     inkscape:zoom="2.319481"
     inkscape:cx="94.808183"
     inkscape:cy="134.76894"
     inkscape:document-units="px"
     inkscape:current-layer="layer1"
     height="235px"
     width="445px"
     showgrid="true"
     grid_units="mm"
     inkscape:grid-points="false"
     inkscape:grid-bbox="false"
     inkscape:window-width="1301"
     inkscape:window-height="744"
     inkscape:window-x="65"
     inkscape:window-y="24"
     inkscape:window-maximized="1">
    <inkscape:grid
       id="GridFromPre046Settings"
       type="xygrid"
       originx="0px"
       originy="0px"
       spacingx="4mm"
       spacingy="4mm"
       color="#0000ff"
       empcolor="#0000ff"
       opacity="0.2"
       empopacity="0.4"
       empspacing="5"
       units="mm"
       visible="true"
       enabled="false"
       snapvisiblegridlinesonly="false" />
  </sodipodi:namedview>
  <metadata
     id="metadata5632">
    <rdf:RDF>
      <cc:Work
         rdf:about="">
        <dc:format>image/svg+xml</dc:format>
        <dc:type
           rdf:resource="http://purl.org/dc/dcmitype/StillImage" />
        <dc:title />
      </cc:Work>
    </rdf:RDF>
  </metadata>
  <g
     inkscape:label="Layer 1"
     inkscape:groupmode="layer"
     id="layer1"
     transform="translate(-27.7217,-42.2677)">
    <path
       style="fill:none;fill-rule:evenodd;stroke:#3465a4;stroke-width:2;stroke-linecap:round;stroke-linejoin:miter;stroke-miterlimit:4;stroke-dasharray:none;stroke-opacity:1;marker-end:url(#marker4442)"
       d="M 54.512549,158.53432 193.92107,61.351504"
       id="path8233-7"
       inkscape:connector-curvature="0"
       sodipodi:nodetypes="cc" />
    <path
       style="fill:none;fill-rule:evenodd;stroke:#5c3566;stroke-width:2;stroke-linecap:round;stroke-linejoin:miter;stroke-miterlimit:4;stroke-dasharray:none;stroke-opacity:1;marker-end:url(#marker4438)"
       d="M 109.95792,287.64095 195.646,62.80798"
       id="path8233-9"
       inkscape:connector-curvature="0"
       sodipodi:nodetypes="cc" />
    <path
       style="fill:none;fill-rule:evenodd;stroke:#d40000;stroke-width:2;stroke-linecap:round;stroke-linejoin:miter;stroke-miterlimit:4;stroke-dasharray:none;stroke-opacity:1;marker-end:url(#marker4435)"
       d="M 109.95872,287.58585 55.215798,162.3687"
       id="path8233"
       inkscape:connector-curvature="0"
       sodipodi:nodetypes="cc" />
    <path
       style="font-size:22px;font-style:normal;font-weight:bold;fill:#a40000;fill-opacity:1;stroke:none;stroke-width:1px;stroke-linecap:butt;stroke-linejoin:miter;stroke-opacity:1;font-family:DejaVu Serif"
       d="M 73.067185,224.96262 L 73.067185,230.67747 L 74.699995,230.67747 L 74.699995,231.97727 L 69.264445,231.97727 L 69.264445,230.52708 C 68.763145,231.12864 68.204545,231.57265 67.588665,231.85911 C 66.972775,232.14556 66.270955,232.28879 65.483195,232.28879 C 64.315875,232.28879 63.417115,231.97727 62.786915,231.35422 C 62.163865,230.72402 61.852335,229.82525 61.852345,228.65793 C 61.852335,227.37604 62.299935,226.4164 63.195115,225.77903 C 64.097455,225.14167 65.454545,224.82298 67.266405,224.82297 L 69.264445,224.82297 L 69.264445,224.14622 C 69.264445,223.2224 69.046015,222.54206 68.609175,222.1052 C 68.172325,221.6612 67.495565,221.4392 66.578905,221.43918 C 65.819785,221.4392 65.232545,221.59675 64.817185,221.91184 C 64.408975,222.21979 64.118935,222.72826 63.947065,223.43723 L 62.733195,223.43723 L 62.733195,220.97727 C 63.413535,220.73379 64.118935,220.55118 64.849415,220.42942 C 65.579875,220.30769 66.349735,220.24681 67.158985,220.2468 C 69.199985,220.24681 70.693155,220.62637 71.638475,221.38547 C 72.590935,222.1446 73.067175,223.33698 73.067185,224.96262 M 69.264445,228.38938 L 69.264445,226.10129 L 67.835735,226.10129 C 67.126745,226.1013 66.582475,226.29466 66.202925,226.68137 C 65.823365,227.0681 65.633585,227.62311 65.633595,228.34641 C 65.633585,229.06972 65.769655,229.61041 66.041795,229.96848 C 66.321085,230.32656 66.743615,230.50559 67.309375,230.50559 C 67.896605,230.50559 68.369265,230.31223 68.727345,229.92551 C 69.085405,229.5388 69.264445,229.02675 69.264445,228.38938"
       id="use7465" />
    <path
       style="font-size:22px;font-style:normal;font-weight:bold;fill:#5c3566;fill-opacity:1;stroke:none;stroke-width:1px;stroke-linecap:butt;stroke-linejoin:miter;stroke-opacity:1;font-family:DejaVu Serif"
       d="M 173.94207,171.91088 L 173.94207,177.62572 L 175.57488,177.62572 L 175.57488,178.92553 L 170.13933,178.92553 L 170.13933,177.47533 C 169.63802,178.0769 169.07943,178.52091 168.46355,178.80736 C 167.84766,179.09382 167.14584,179.23705 166.35808,179.23705 C 165.19076,179.23705 164.292,178.92553 163.66179,178.30248 C 163.03875,177.67227 162.72722,176.77351 162.72722,175.60619 C 162.72722,174.3243 163.17481,173.36466 164.07,172.72729 C 164.97234,172.08992 166.32943,171.77124 168.14129,171.77123 L 170.13933,171.77123 L 170.13933,171.09447 C 170.13932,170.17065 169.9209,169.49032 169.48406,169.05346 C 169.0472,168.60946 168.37045,168.38745 167.45379,168.38744 C 166.69467,168.38745 166.10743,168.545 165.69207,168.8601 C 165.28386,169.16805 164.99382,169.67651 164.82195,170.38549 L 163.60808,170.38549 L 163.60808,167.92553 C 164.28842,167.68205 164.99382,167.49943 165.72429,167.37768 C 166.45476,167.25594 167.22461,167.19507 168.03386,167.19506 C 170.07487,167.19507 171.56803,167.57463 172.51336,168.33373 C 173.46582,169.09286 173.94206,170.28524 173.94207,171.91088 M 170.13933,175.33764 L 170.13933,173.04955 L 168.71062,173.04955 C 168.00163,173.04956 167.45736,173.24292 167.07781,173.62963 C 166.69825,174.01635 166.50847,174.57137 166.50847,175.29467 C 166.50847,176.01798 166.64454,176.55867 166.91668,176.91674 C 167.19597,177.27481 167.61849,177.45385 168.18425,177.45385 C 168.77149,177.45385 169.24414,177.26049 169.60222,176.87377 C 169.96029,176.48705 170.13932,175.97501 170.13933,175.33764 M 186.54265,165.13256 L 186.54265,170.78295 L 192.19304,170.78295 L 192.19304,173.25365 L 186.54265,173.25365 L 186.54265,178.90404 L 184.07195,178.90404 L 184.07195,173.25365 L 178.42156,173.25365 L 178.42156,170.78295 L 184.07195,170.78295 L 184.07195,165.13256 L 186.54265,165.13256 M 196.66179,177.62572 L 196.66179,163.49975 L 195.02898,163.49975 L 195.02898,162.21068 L 200.46453,162.21068 L 200.46453,168.95678 C 200.78679,168.36239 201.22006,167.92196 201.76433,167.63549 C 202.3086,167.34188 202.98177,167.19507 203.78386,167.19506 C 205.4095,167.19507 206.68782,167.73218 207.61883,168.80639 C 208.55696,169.87345 209.02604,171.34155 209.02605,173.21068 C 209.02604,175.07983 208.55696,176.55151 207.61883,177.62572 C 206.68782,178.69994 205.4095,179.23705 203.78386,179.23705 C 202.98177,179.23705 202.3086,179.09382 201.76433,178.80736 C 201.22006,178.51374 200.78679,178.06973 200.46453,177.47533 L 200.46453,178.92553 L 195.02898,178.92553 L 195.02898,177.62572 L 196.66179,177.62572 M 200.46453,173.78002 C 200.46452,175.11206 200.63282,176.07527 200.96941,176.66967 C 201.31315,177.26407 201.86459,177.56127 202.62371,177.56127 C 203.4043,177.56127 203.95215,177.24617 204.26726,176.61596 C 204.58952,175.98575 204.75065,174.85066 204.75066,173.21068 C 204.75065,171.57072 204.58952,170.43921 204.26726,169.81615 C 203.95215,169.18595 203.4043,168.87085 202.62371,168.87084 C 201.86459,168.87085 201.31315,169.16805 200.96941,169.76244 C 200.63282,170.35685 200.46452,171.32007 200.46453,172.65209 L 200.46453,173.78002"
       id="use7467" />
    <path
       style="font-size:22px;font-style:normal;font-weight:bold;fill:#3465a4;fill-opacity:1;stroke:none;stroke-width:1px;stroke-linecap:butt;stroke-linejoin:miter;stroke-opacity:1;font-family:DejaVu Serif"
       d="M 104.04273,106.81148 L 104.04273,92.685495 L 102.40992,92.685495 L 102.40992,91.396432 L 107.84548,91.396432 L 107.84548,98.142517 C 108.16774,97.548127 108.60101,97.107697 109.14528,96.821237 C 109.68955,96.527627 110.36272,96.380817 111.16482,96.380807 C 112.79046,96.380817 114.06877,96.917927 114.99978,97.992127 C 115.93791,99.059197 116.40699,100.52731 116.407,102.39644 C 116.40699,104.26559 115.93791,105.73726 114.99978,106.81148 C 114.06877,107.8857 112.79046,108.4228 111.16482,108.4228 C 110.36272,108.4228 109.68955,108.27958 109.14528,107.99312 C 108.60101,107.6995 108.16774,107.25549 107.84548,106.66109 L 107.84548,108.11128 L 102.40992,108.11128 L 102.40992,106.81148 L 104.04273,106.81148 M 107.84548,102.96578 C 107.84547,104.29781 108.01377,105.26103 108.35036,105.85543 C 108.69411,106.44983 109.24554,106.74703 110.00466,106.74703 C 110.78525,106.74703 111.3331,106.43192 111.64821,105.80171 C 111.97047,105.17151 112.1316,104.03642 112.13161,102.39644 C 112.1316,100.75647 111.97047,99.624957 111.64821,99.001897 C 111.3331,98.371697 110.78525,98.056597 110.00466,98.056587 C 109.24554,98.056597 108.69411,98.353797 108.35036,98.948187 C 108.01377,99.542607 107.84547,100.50582 107.84548,101.83785 L 107.84548,102.96578"
       id="use7471" />
    <path
       style="font-size:20px;font-style:normal;font-variant:normal;font-weight:bold;font-stretch:normal;fill:#000000;fill-opacity:1;stroke:none;stroke-width:1px;stroke-linecap:butt;stroke-linejoin:miter;stroke-opacity:1;font-family:Serif;-inkscape-font-specification:Serif Bold"
       d="M 120.51049,298.48372 L 120.51049,299.50911 C 120.51048,300.72005 120.66348,301.5957 120.96947,302.13606 C 121.28197,302.67643 121.78327,302.94661 122.47338,302.94661 C 123.18301,302.94661 123.68105,302.66015 123.96752,302.08723 C 124.26048,301.51432 124.40696,300.48242 124.40697,298.99153 C 124.40696,297.50065 124.26048,296.47201 123.96752,295.90559 C 123.68105,295.33268 123.18301,295.04623 122.47338,295.04622 C 121.78327,295.04623 121.28197,295.31641 120.96947,295.85676 C 120.66348,296.39714 120.51048,297.27279 120.51049,298.48372 M 117.05346,294.98762 L 115.56908,294.98762 L 115.56908,293.80598 L 120.51049,293.80598 L 120.51049,295.12434 C 120.80345,294.58399 121.19733,294.1836 121.69213,293.92317 C 122.18691,293.65625 122.79889,293.52279 123.52807,293.52278 C 125.00592,293.52279 126.16803,294.01107 127.01439,294.98762 C 127.86725,295.95768 128.29368,297.29232 128.29369,298.99153 C 128.29368,300.69075 127.86725,302.02864 127.01439,303.0052 C 126.16803,303.98176 125.00592,304.47004 123.52807,304.47004 C 122.79889,304.47004 122.18691,304.33984 121.69213,304.07942 C 121.19733,303.81249 120.80345,303.40885 120.51049,302.86848 L 120.51049,307.16536 L 122.11205,307.16536 L 122.11205,308.347 L 115.56908,308.347 L 115.56908,307.16536 L 117.05346,307.16536 L 117.05346,294.98762"
       id="text2528" />
    <path
       style="font-size:10px;font-style:normal;font-weight:normal;fill:#000000;fill-opacity:1;stroke:none;stroke-width:1px;stroke-linecap:butt;stroke-linejoin:miter;stroke-opacity:1;font-family:Bitstream Vera Sans"
       d="M 45.770669,152.98145 L 45.770669,165.15918 L 47.245279,165.15918 L 47.245279,166.34082 L 40.712076,166.34082 L 40.712076,165.15918 L 42.313638,165.15918 L 42.313638,160.86231 C 42.020661,161.40267 41.623526,161.80632 41.122232,162.07324 C 40.627433,162.33366 40.015455,162.46387 39.286294,162.46387 C 37.814936,162.46387 36.656083,161.97559 35.809732,160.99903 C 34.969887,160.02247 34.549965,158.68458 34.549966,156.98535 C 34.549965,155.27963 34.969887,153.94174 35.809732,152.97168 C 36.656083,152.00164 37.814936,151.51661 39.286294,151.5166 C 40.015455,151.51661 40.627433,151.65008 41.122232,151.91699 C 41.623526,152.17742 42.020661,152.57781 42.313638,153.11817 L 42.313638,151.79981 L 47.245279,151.79981 L 47.245279,152.98145 L 45.770669,152.98145 M 42.313638,156.47754 C 42.31363,155.26661 42.15738,154.39096 41.844888,153.85059 C 41.53238,153.31023 41.034334,153.04005 40.350748,153.04004 C 39.634596,153.04005 39.130039,153.32651 38.837076,153.89942 C 38.550612,154.46583 38.407383,155.49448 38.407388,156.98535 C 38.407383,158.47624 38.553868,159.50814 38.846841,160.08106 C 39.139805,160.65398 39.641106,160.94043 40.350748,160.94043 C 41.034334,160.94043 41.53238,160.67025 41.844888,160.12988 C 42.15738,159.58952 42.31363,158.71387 42.313638,157.50293 L 42.313638,156.47754"
       id="text2532" />
    <path
       style="font-size:10px;font-style:normal;font-weight:normal;fill:#000000;fill-opacity:1;stroke:none;stroke-width:1px;stroke-linecap:butt;stroke-linejoin:miter;stroke-opacity:1;font-family:Bitstream Vera Sans"
       d="M 210.5098,46.816542 L 210.5098,49.912246 L 209.40629,49.912246 C 209.36721,49.358868 209.21747,48.948712 208.95707,48.681777 C 208.69664,48.408348 208.31904,48.27163 207.82425,48.271621 C 207.06904,48.27163 206.47334,48.603661 206.03714,49.267714 C 205.60094,49.931784 205.38284,50.853007 205.38285,52.031386 L 205.38285,56.132949 L 207.26761,56.132949 L 207.26761,57.314589 L 200.45121,57.314589 L 200.45121,56.132949 L 201.92582,56.132949 L 201.92582,48.115371 L 200.34379,48.115371 L 200.34379,46.93373 L 205.38285,46.93373 L 205.38285,48.779433 C 205.72138,48.056786 206.16735,47.522932 206.72074,47.177871 C 207.28063,46.826319 207.96422,46.650538 208.77152,46.650527 C 208.97333,46.650538 209.21747,46.666814 209.50394,46.699355 C 209.7969,46.725407 210.13219,46.76447 210.5098,46.816542"
       id="text2536" />
  </g>
</svg>
